<svg xmlns="http://www.w3.org/2000/svg" viewBox="0 0 414 60"><path d="M45.7 44.3c0 1 0 2.2-.1 3.6s-.2 2.7-.4 4c-.2 1.3-.4 2.4-.7 3.4-.3 1-.7 1.7-1 2-3.1 0-6.3-.1-9.7-.2-3.4-.1-6.8-.4-10.2-.7-3.4-.3-6.8-.8-10.1-1.5-3.5-.8-6.6-1.7-9.6-2.9-.8-1.2-1.5-2.9-2-5.1-.5-2.3-.8-4.8-.9-7.6-.1-2.8-.1-5.9.1-9s.5-6.3 1-9.2c.5-3 1.1-5.7 1.8-8.3.7-2.5 1.6-4.6 2.5-6.2 1.2-.7 2.8-1.3 4.9-2 2.1-.6 4.4-1.2 7-1.7 2.6-.5 5.2-.9 8-1.3s5.4-.6 7.8-.8c2.4-.1 4.6-.2 6.4-.1s3.2.3 3.9.7c.1.5.2 1.2.2 2.1.1.9.1 1.9.2 3v3.6c-.1 1.3-.2 2.5-.4 3.9-2.1.2-4 .3-5.9.4-1.8.1-3.6.2-5.2.4-1.7.1-3.3.4-4.9.7-1.6.3-3.2.9-4.8 1.6-.4 1.7-.9 3.7-1.3 6s-.7 4.6-.9 6.9c-.2 2.3-.2 4.5-.1 6.5s.5 3.7 1.2 4.9c.7.5 1.7.9 2.9 1.1 1.3.3 2.7.5 4.3.6 1.6.1 3.2.3 4.9.3 1.7.1 3.3.1 4.7.2 1.5 0 2.8.1 3.9.2 1.2.1 2 .3 2.5.5zM70.5 1.6c0 1.9-.1 4.4-.1 7.7 0 3.2-.1 6.7-.1 10.5v36.5c-1.4.2-2.5.3-3.4.4-.9.1-1.9.2-3 .2s-2.4 0-3.9-.1-3.7-.2-6.3-.3c0-1.6-.1-3.7-.2-6.5s-.2-5.9-.2-9.3c-.1-3.4-.2-7-.3-10.7-.1-3.7-.2-7.3-.2-10.8 0-3.5-.1-6.7 0-9.7 0-3 .1-5.4.2-7.2.3-.1.9-.2 1.7-.4.8-.1 1.8-.2 3-.3 1.1-.1 2.4-.1 3.7-.2 1.3 0 2.6 0 3.8-.1h3.3c.8.3 1.5.3 2 .3zM121.5 55.2c-1.4.4-3.1.8-5.2 1.1-2.1.4-4.3.7-6.7.9-2.4.3-4.9.5-7.5.7-2.6.2-5.1.3-7.4.4-2.4.1-4.6 0-6.6-.1s-3.7-.3-5-.5c-.5-.7-1.1-1.5-1.8-2.4s-1.3-1.8-1.9-2.8c-.6-1-1.2-1.9-1.7-2.8-.5-.9-.9-1.7-1.2-2.5.1-2.6.4-5.2 1.1-7.7.6-2.6 1.4-4.7 2.3-6.5 1-.6 2.3-1.2 4.1-1.7 1.8-.5 3.8-1.1 5.9-1.6 2.2-.5 4.4-1 6.8-1.4 2.4-.4 4.6-.8 6.8-1.2-.1-.5-.2-1-.4-1.6-.1-.6-.2-1.1-.4-1.3-.9-.6-2.2-1-3.8-1.3-1.6-.3-3.4-.5-5.4-.5-1.9-.1-3.9-.1-5.9-.1h-5.4c0-1 0-2 .1-3.1s.2-2.2.4-3.2.4-1.9.7-2.7c.3-.8.6-1.4.9-1.7 2.7-.3 5.5-.5 8.4-.7 2.9-.2 5.7-.2 8.6-.1 2.9.1 5.7.3 8.5.7 2.8.4 5.5 1 8.1 1.7.8 1 1.4 2.4 1.9 4.3s.9 4.2 1.2 6.7c.3 2.5.5 5.2.7 8.1.1 2.9.2 5.7.2 8.5s0 5.4-.1 7.9c-.1 2.6-.2 4.8-.3 6.5zm-16.8-8c0-1.8-.1-3.5-.1-5.2 0-1.6-.1-3.3-.1-5-1.6.3-3.1.6-4.6.8-1.5.2-2.9.6-4.4 1.4-.3.5-.5 1.1-.6 1.8-.1.7-.2 1.4-.1 2.2 0 .7.1 1.5.3 2.2.1.7.3 1.4.5 1.9.9.4 2.1.6 3.7.4 1.4-.1 3.3-.3 5.4-.5zM165.9 21.5c-3.1.4-6.2.8-9.2 1-3.1.3-6.1.7-9.2 1.2-.6.9-1 1.9-1.2 3-.2 1.1-.3 2.2-.3 3.2 3.3.6 6.6 1.2 9.9 1.6 3.3.5 6.6 1 10 1.5.6 1.4 1.1 2.9 1.3 4.5.2 1.6.2 3.3.1 4.9-.2 1.7-.5 3.3-1 4.9-.5 1.6-1.1 3-1.9 4.3-2.6 1.2-5.2 2.2-8 3.1-2.8.8-5.6 1.5-8.5 2.1-2.9.6-5.7 1.1-8.6 1.5s-5.7.8-8.5 1c-.4-.2-.7-.8-.9-1.8-.3-1-.5-2.1-.6-3.3-.2-1.2-.3-2.3-.4-3.5-.1-1.1-.1-1.9-.1-2.3 1.5-.1 3.2-.3 5-.5 1.8-.2 3.6-.4 5.3-.7 1.7-.3 3.3-.6 4.8-1s2.6-.7 3.3-1c.2-.5.3-1.1.4-1.9.1-.8.1-1.5 0-2.1-.4-.3-1.2-.6-2.2-.8-1-.2-2.2-.4-3.5-.6-1.3-.2-2.7-.4-4.2-.5-1.5-.2-2.9-.3-4.3-.5s-2.6-.4-3.8-.7c-1.1-.3-2.1-.6-2.7-1.1-.2-3.6 0-7.3.8-11 .7-3.7 1.9-7.1 3.5-10.4 2.6-.9 5.3-1.6 8.1-2.2 2.8-.6 5.7-1.1 8.6-1.5s5.7-.6 8.6-.8c2.9-.1 5.7-.2 8.4-.1.5 1.6.8 3.3 1 5.1v5.4zM217.1 10.4c.2 2 .3 4.3.4 7.1.1 2.8.1 5.7.1 8.8 0 3.1-.1 6.3-.1 9.5-.1 3.2-.1 6.2-.2 9.1-.1 2.8-.2 5.4-.2 7.6-.1 2.2-.1 3.9-.2 5.1-.7.1-1.8.2-3.3.3s-3.1.1-4.6.1h-4.4c-1.4 0-2.3-.1-2.8-.1-.1-1.1-.1-2.3 0-3.8.1-1.4.1-2.9.1-4.4v-4.5c0-1.5-.2-2.8-.4-4-.5 0-1.4-.1-2.5-.2-1.2-.1-2.4-.1-3.7-.1-1.3 0-2.5.1-3.5.3-1.1.2-1.7.6-2 1.1-.2 2.6-.3 5.2-.4 7.8-.1 2.6-.1 5.2 0 7.8-2.4.5-5 .8-7.8.8-2.8.1-5.5 0-8-.2-.2-1.3-.4-3.2-.5-5.6-.1-2.4-.2-5.1-.3-8.1-.1-3-.1-6.1-.1-9.4 0-3.3.1-6.4.1-9.4s.1-5.7.2-8.2c.1-2.5.1-4.5.1-5.9.6-.2 1.5-.3 2.5-.4 1-.1 2.1-.3 3.3-.4 1.2-.1 2.4-.2 3.7-.2h3.4c1 0 1.9.1 2.6.2.7.1 1.1.2 1.3.4-.4 2.4-.6 5-.6 7.7v7.8c.8.2 1.8.3 3.1.3s2.5-.1 3.8-.2c1.3-.1 2.4-.3 3.5-.5 1-.2 1.8-.4 2.2-.5.2-.7.2-1.7.2-2.9s0-2.5-.1-3.9l-.1-4.1c0-1.4 0-2.6.1-3.7.6-.3 1.5-.5 3-.7 1.4-.2 2.9-.4 4.6-.5 1.6-.1 3.1-.1 4.6-.1s2.3 0 2.9.2zM291.9 44.3c0 1 0 2.2-.1 3.6s-.2 2.7-.4 4c-.2 1.3-.4 2.4-.7 3.4-.3 1-.7 1.7-1 2-3.1 0-6.3-.1-9.7-.2-3.4-.1-6.8-.4-10.2-.7-3.4-.3-6.8-.8-10.1-1.5s-6.5-1.6-9.4-2.7c-.8-1.2-1.5-2.9-2-5.1-.5-2.3-.8-4.8-.9-7.6-.1-2.8-.1-5.9.1-9s.5-6.3 1-9.2c.5-3 1.1-5.7 1.8-8.3.7-2.5 1.6-4.6 2.5-6.2 1.2-.7 2.8-1.3 4.9-2 2.1-.6 4.4-1.2 7-1.7 2.6-.5 5.2-.9 8-1.3s5.4-.6 7.8-.8c2.4-.1 4.6-.2 6.4-.1s3.2.3 3.9.7c.1.5.2 1.2.2 2.1.1.9.1 1.9.2 3v3.6c-.1 1.3-.2 2.5-.4 3.9-2.1.2-4 .3-5.9.4-1.8.1-3.6.2-5.2.4-1.7.1-3.3.4-4.9.7-1.6.3-3.2.9-4.8 1.6-.4 1.7-.9 3.7-1.3 6s-.7 4.6-.9 6.9c-.2 2.3-.2 4.5-.1 6.5s.5 3.7 1.2 4.9c.7.5 1.7.9 2.9 1.1 1.3.3 2.7.5 4.3.6 1.6.1 3.2.3 4.9.3 1.7.1 3.3.1 4.7.2 1.5 0 2.8.1 3.9.2 1-.1 1.8.1 2.3.3zM341.2 55.2c-1.4.4-3.1.8-5.2 1.1-2.1.4-4.3.7-6.7.9-2.4.3-4.9.5-7.5.7-2.6.2-5.1.3-7.4.4-2.4.1-4.6 0-6.6-.1s-3.7-.3-5-.5c-.5-.7-1.1-1.5-1.8-2.4s-1.3-1.8-1.9-2.8c-.6-1-1.2-1.9-1.7-2.8-.5-.9-.9-1.7-1.2-2.5.1-2.6.4-5.2 1.1-7.7.6-2.6 1.4-4.7 2.3-6.5 1-.6 2.3-1.2 4.1-1.7 1.8-.5 3.8-1.1 5.9-1.6 2.2-.5 4.4-1 6.8-1.4 2.4-.4 4.6-.8 6.8-1.2-.1-.5-.2-1-.4-1.6-.1-.6-.2-1.1-.4-1.3-.9-.6-2.2-1-3.8-1.3-1.6-.3-3.4-.5-5.4-.5-1.9-.1-3.9-.1-5.9-.1h-5.4c0-1 0-2 .1-3.1s.2-2.2.4-3.2.4-1.9.7-2.7c.3-.8.6-1.4.9-1.7 2.7-.3 5.5-.5 8.4-.7 2.9-.2 5.7-.2 8.6-.1 2.9.1 5.7.3 8.5.7 2.8.4 5.5 1 8.1 1.7.8 1 1.4 2.4 1.9 4.3s.9 4.2 1.2 6.7c.3 2.5.5 5.2.7 8.1.1 2.9.2 5.7.2 8.5s0 5.4-.1 7.9c0 2.6-.1 4.8-.3 6.5zm-16.8-8c0-1.8-.1-3.5-.1-5.2 0-1.6-.1-3.3-.1-5-1.6.3-3.1.6-4.6.8-1.5.2-2.9.6-4.4 1.4-.3.5-.5 1.1-.6 1.8-.1.7-.2 1.4-.1 2.2 0 .7.1 1.5.3 2.2.1.7.3 1.4.5 1.9.9.4 2.1.6 3.7.4 1.4-.1 3.3-.3 5.4-.5zM366.7 1.6c0 1.9-.1 4.4-.1 7.7 0 3.2-.1 6.7-.1 10.5v36.5c-1.4.2-2.5.3-3.4.4-.9.1-1.9.2-3 .2s-2.4 0-3.9-.1-3.7-.2-6.3-.3c0-1.6-.1-3.7-.2-6.5s-.2-5.9-.2-9.3c-.1-3.4-.2-7-.3-10.7-.1-3.7-.2-7.3-.2-10.8 0-3.5-.1-6.7 0-9.7 0-3 .1-5.4.2-7.2.3-.1.9-.2 1.7-.4.8-.1 1.8-.2 3-.3 1.1-.1 2.4-.1 3.7-.2 1.3 0 2.6 0 3.8-.1h3.3c.8.3 1.6.3 2 .3zM413 46.7c0 .8 0 1.8-.1 2.9-.1 1.1-.2 2.2-.4 3.2s-.4 1.9-.7 2.7c-.3.8-.6 1.3-.9 1.6-2.8 0-5.7-.1-8.8-.1-3.1-.1-6.1-.3-9.2-.5-3.1-.3-6.1-.7-9.1-1.2-3-.6-5.8-1.3-8.4-2.2-.8-.9-1.4-2.3-1.8-4.1-.4-1.8-.7-3.8-.8-6.1-.1-2.3-.1-4.7.1-7.2s.5-5 .9-7.4c.4-2.4 1-4.6 1.6-6.6.7-2 1.4-3.7 2.2-4.9 1-.6 2.5-1.1 4.4-1.6 1.9-.5 4-1 6.3-1.4 2.3-.4 4.7-.8 7.2-1 2.5-.3 4.8-.5 7-.6 2.2-.1 4.1-.1 5.8-.1 1.7.1 2.9.3 3.5.5.1.9.2 2.2.4 4.1.1 1.8 0 3.8-.4 5.9-1.8.1-3.6.2-5.2.3-1.7.1-3.2.2-4.7.3-1.5.1-3 .3-4.4.6-1.4.3-2.8.7-4.3 1.3-.4 1.4-.8 3-1.2 4.8-.4 1.8-.7 3.6-.8 5.5-.2 1.8-.2 3.6-.1 5.2s.5 3 1.1 4c.6.4 1.5.7 2.7.9 1.1.2 2.4.4 3.8.5 1.4.1 2.9.2 4.4.3 1.5.1 2.9.1 4.3.1 1.3 0 2.5.1 3.5.2 1-.2 1.7-.1 2.1.1z"/></svg>