<?xml version="1.0" encoding="utf-8"?>
<!-- Generator: Adobe Illustrator 18.0.0, SVG Export Plug-In . SVG Version: 6.00 Build 0)  -->
<!DOCTYPE svg PUBLIC "-//W3C//DTD SVG 1.1//EN" "http://www.w3.org/Graphics/SVG/1.1/DTD/svg11.dtd">
<svg version="1.1" id="Layer_1" xmlns="http://www.w3.org/2000/svg" xmlns:xlink="http://www.w3.org/1999/xlink" x="0px" y="0px"
	 viewBox="0 0 512 512" enable-background="new 0 0 512 512" xml:space="preserve">
<path fill="#DC4A38" d="M270.1,292.8L246,274c-7.3-6-17.5-13.8-17.5-28.9c0-14.5,10.3-24.1,18.7-32.6c28.4-21.8,56.1-45.3,56.1-94.8
	c0-50.7-31.9-77.8-47-90.5h41L340.8,0H209.1C172.9,0,121,8.4,83,39.9c-28.9,24.8-42.9,59.3-42.9,89.4c0,51.9,39.9,105,110.6,105
	c6.7,0,13.8-0.6,21.1-1.3c-3,7.8-6.7,14.5-6.7,25.9c0,20.5,10.8,33.2,19.9,45.3c-30.2,1.7-86.4,5.4-127.4,30.8
	c-39.2,23.5-51.3,57.3-51.3,81.5C6.3,466.1,52.8,512,150,512c114.7,0,175.7-63.4,175.7-126.1C326.4,340.4,299.2,317.6,270.1,292.8z
	 M182.6,216c-57.3,0-83.4-74.3-83.4-119c0-17.5,3-35.6,14.5-49.6c10.8-13.3,29.5-22.4,46.5-22.4c55.6,0,83.9,74.8,83.9,123.1
	c0,12.1-1.3,33.2-16.8,48.9C217.1,208.3,199.6,216,182.6,216z M183.2,485.3c-71.3,0-117.7-34.5-117.7-81.5
	c0-47.7,42.9-63.4,57.3-68.8c27.8-9.7,64-10.8,70.1-10.8c6.7,0,10.3,0,15.1,0.6c50.7,36.2,73.1,54.3,73.1,88.2
	C281.7,454,247.3,485.3,183.2,485.3L183.2,485.3z M438.7,214.9v-66.4h-33.2v66.4h-66.4v33.8h66.4v67h33.2v-67h67v-33.8L438.7,214.9
	L438.7,214.9z"/>
</svg>
