<?xml version="1.0" encoding="utf-8"?>
<!-- Generator: Adobe Illustrator 18.0.0, SVG Export Plug-In . SVG Version: 6.00 Build 0)  -->
<!DOCTYPE svg PUBLIC "-//W3C//DTD SVG 1.1//EN" "http://www.w3.org/Graphics/SVG/1.1/DTD/svg11.dtd">
<svg version="1.1" id="Layer_1" xmlns="http://www.w3.org/2000/svg" xmlns:xlink="http://www.w3.org/1999/xlink" x="0px" y="0px"
	 viewBox="0 0 414 60" enable-background="new 0 0 414 60" xml:space="preserve">
<g>
	<path d="M45.7,44.3c0,1,0,2.2-0.1,3.6c-0.1,1.4-0.2,2.7-0.4,4c-0.2,1.3-0.4,2.4-0.7,3.4c-0.3,1-0.7,1.7-1,2c-3.1,0-6.3-0.1-9.7-0.2
		c-3.4-0.1-6.8-0.4-10.2-0.7c-3.4-0.3-6.8-0.8-10.1-1.5C10,54.1,6.9,53.2,3.9,52c-0.8-1.2-1.5-2.9-2-5.1c-0.5-2.3-0.8-4.8-0.9-7.6
		c-0.1-2.8-0.1-5.9,0.1-9s0.5-6.3,1-9.2c0.5-3,1.1-5.7,1.8-8.3c0.7-2.5,1.6-4.6,2.5-6.2c1.2-0.7,2.8-1.3,4.9-2
		c2.1-0.6,4.4-1.2,7-1.7c2.6-0.5,5.2-0.9,8-1.3c2.8-0.4,5.4-0.6,7.8-0.8c2.4-0.1,4.6-0.2,6.4-0.1s3.2,0.3,3.9,0.7
		c0.1,0.5,0.2,1.2,0.2,2.1c0.1,0.9,0.1,1.9,0.2,3c0,1.1,0,2.3,0,3.6c-0.1,1.3-0.2,2.5-0.4,3.9c-2.1,0.2-4,0.3-5.9,0.4
		c-1.8,0.1-3.6,0.2-5.2,0.4c-1.7,0.1-3.3,0.4-4.9,0.7c-1.6,0.3-3.2,0.9-4.8,1.6c-0.4,1.7-0.9,3.7-1.3,6c-0.4,2.3-0.7,4.6-0.9,6.9
		c-0.2,2.3-0.2,4.5-0.1,6.5c0.1,2,0.5,3.7,1.2,4.9c0.7,0.5,1.7,0.9,2.9,1.1c1.3,0.3,2.7,0.5,4.3,0.6c1.6,0.1,3.2,0.3,4.9,0.3
		c1.7,0.1,3.3,0.1,4.7,0.2c1.5,0,2.8,0.1,3.9,0.2C44.4,43.9,45.2,44.1,45.7,44.3z"/>
	<path d="M70.5,1.6c0,1.9-0.1,4.4-0.1,7.7c0,3.2-0.1,6.7-0.1,10.5c0,3.8,0,7.6,0,11.6c0,4,0,7.7,0,11.1c0,3.4,0,6.4,0,8.9
		c0,2.5,0,4.1,0,4.9c-1.4,0.2-2.5,0.3-3.4,0.4c-0.9,0.1-1.9,0.2-3,0.2c-1.1,0-2.4,0-3.9-0.1c-1.5-0.1-3.7-0.2-6.3-0.3
		c0-1.6-0.1-3.7-0.2-6.5c-0.1-2.8-0.2-5.9-0.2-9.3c-0.1-3.4-0.2-7-0.3-10.7c-0.1-3.7-0.2-7.3-0.2-10.8c0-3.5-0.1-6.7,0-9.7
		c0-3,0.1-5.4,0.2-7.2c0.3-0.1,0.9-0.2,1.7-0.4c0.8-0.1,1.8-0.2,3-0.3c1.1-0.1,2.4-0.1,3.7-0.2c1.3,0,2.6,0,3.8-0.1
		c1.2,0,2.3,0,3.3,0C69.3,1.6,70,1.6,70.5,1.6z"/>
	<path d="M121.5,55.2c-1.4,0.4-3.1,0.8-5.2,1.1c-2.1,0.4-4.3,0.7-6.7,0.9c-2.4,0.3-4.9,0.5-7.5,0.7c-2.6,0.2-5.1,0.3-7.4,0.4
		c-2.4,0.1-4.6,0-6.6-0.1c-2-0.1-3.7-0.3-5-0.5c-0.5-0.7-1.1-1.5-1.8-2.4s-1.3-1.8-1.9-2.8c-0.6-1-1.2-1.9-1.7-2.8
		c-0.5-0.9-0.9-1.7-1.2-2.5c0.1-2.6,0.4-5.2,1.1-7.7c0.6-2.6,1.4-4.7,2.3-6.5c1-0.6,2.3-1.2,4.1-1.7c1.8-0.5,3.8-1.1,5.9-1.6
		c2.2-0.5,4.4-1,6.8-1.4c2.4-0.4,4.6-0.8,6.8-1.2c-0.1-0.5-0.2-1-0.4-1.6c-0.1-0.6-0.2-1.1-0.4-1.3c-0.9-0.6-2.2-1-3.8-1.3
		c-1.6-0.3-3.4-0.5-5.4-0.5c-1.9-0.1-3.9-0.1-5.9-0.1c-2,0-3.8,0-5.4,0c0-1,0-2,0.1-3.1c0.1-1.1,0.2-2.2,0.4-3.2
		c0.2-1,0.4-1.9,0.7-2.7c0.3-0.8,0.6-1.4,0.9-1.7c2.7-0.3,5.5-0.5,8.4-0.7c2.9-0.2,5.7-0.2,8.6-0.1c2.9,0.1,5.7,0.3,8.5,0.7
		c2.8,0.4,5.5,1,8.1,1.7c0.8,1,1.4,2.4,1.9,4.3c0.5,1.9,0.9,4.2,1.2,6.7c0.3,2.5,0.5,5.2,0.7,8.1c0.1,2.9,0.2,5.7,0.2,8.5
		c0,2.8,0,5.4-0.1,7.9C121.7,51.3,121.6,53.5,121.5,55.2z M104.7,47.2c0-1.8-0.1-3.5-0.1-5.2c0-1.6-0.1-3.3-0.1-5
		c-1.6,0.3-3.1,0.6-4.6,0.8c-1.5,0.2-2.9,0.6-4.4,1.4c-0.3,0.5-0.5,1.1-0.6,1.8c-0.1,0.7-0.2,1.4-0.1,2.2c0,0.7,0.1,1.5,0.3,2.2
		c0.1,0.7,0.3,1.4,0.5,1.9c0.9,0.4,2.1,0.6,3.7,0.4C100.7,47.6,102.6,47.4,104.7,47.2z"/>
	<path d="M165.9,21.5c-3.1,0.4-6.2,0.8-9.2,1c-3.1,0.3-6.1,0.7-9.2,1.2c-0.6,0.9-1,1.9-1.2,3c-0.2,1.1-0.3,2.2-0.3,3.2
		c3.3,0.6,6.6,1.2,9.9,1.6c3.3,0.5,6.6,1,10,1.5c0.6,1.4,1.1,2.9,1.3,4.5c0.2,1.6,0.2,3.3,0.1,4.9c-0.2,1.7-0.5,3.3-1,4.9
		c-0.5,1.6-1.1,3-1.9,4.3c-2.6,1.2-5.2,2.2-8,3.1c-2.8,0.8-5.6,1.5-8.5,2.1c-2.9,0.6-5.7,1.1-8.6,1.5s-5.7,0.8-8.5,1
		c-0.4-0.2-0.7-0.8-0.9-1.8c-0.3-1-0.5-2.1-0.6-3.3c-0.2-1.2-0.3-2.3-0.4-3.5c-0.1-1.1-0.1-1.9-0.1-2.3c1.5-0.1,3.2-0.3,5-0.5
		c1.8-0.2,3.6-0.4,5.3-0.7c1.7-0.3,3.3-0.6,4.8-1c1.5-0.4,2.6-0.7,3.3-1c0.2-0.5,0.3-1.1,0.4-1.9c0.1-0.8,0.1-1.5,0-2.1
		c-0.4-0.3-1.2-0.6-2.2-0.8c-1-0.2-2.2-0.4-3.5-0.6c-1.3-0.2-2.7-0.4-4.2-0.5c-1.5-0.2-2.9-0.3-4.3-0.5c-1.4-0.2-2.6-0.4-3.8-0.7
		c-1.1-0.3-2.1-0.6-2.7-1.1c-0.2-3.6,0-7.3,0.8-11c0.7-3.7,1.9-7.1,3.5-10.4c2.6-0.9,5.3-1.6,8.1-2.2c2.8-0.6,5.7-1.1,8.6-1.5
		s5.7-0.6,8.6-0.8c2.9-0.1,5.7-0.2,8.4-0.1c0.5,1.6,0.8,3.3,1,5.1S165.9,19.9,165.9,21.5z"/>
	<path d="M217.1,10.4c0.2,2,0.3,4.3,0.4,7.1c0.1,2.8,0.1,5.7,0.1,8.8c0,3.1-0.1,6.3-0.1,9.5c-0.1,3.2-0.1,6.2-0.2,9.1
		c-0.1,2.8-0.2,5.4-0.2,7.6c-0.1,2.2-0.1,3.9-0.2,5.1c-0.7,0.1-1.8,0.2-3.3,0.3s-3.1,0.1-4.6,0.1c-1.6,0-3.1,0-4.4,0
		c-1.4,0-2.3-0.1-2.8-0.1c-0.1-1.1-0.1-2.3,0-3.8c0.1-1.4,0.1-2.9,0.1-4.4c0-1.5,0-3,0-4.5c0-1.5-0.2-2.8-0.4-4
		c-0.5,0-1.4-0.1-2.5-0.2c-1.2-0.1-2.4-0.1-3.7-0.1c-1.3,0-2.5,0.1-3.5,0.3c-1.1,0.2-1.7,0.6-2,1.1c-0.2,2.6-0.3,5.2-0.4,7.8
		c-0.1,2.6-0.1,5.2,0,7.8c-2.4,0.5-5,0.8-7.8,0.8c-2.8,0.1-5.5,0-8-0.2c-0.2-1.3-0.4-3.2-0.5-5.6c-0.1-2.4-0.2-5.1-0.3-8.1
		c-0.1-3-0.1-6.1-0.1-9.4c0-3.3,0.1-6.4,0.1-9.4s0.1-5.7,0.2-8.2c0.1-2.5,0.1-4.5,0.1-5.9c0.6-0.2,1.5-0.3,2.5-0.4
		c1-0.1,2.1-0.3,3.3-0.4c1.2-0.1,2.4-0.2,3.7-0.2c1.2,0,2.4,0,3.4,0c1,0,1.9,0.1,2.6,0.2c0.7,0.1,1.1,0.2,1.3,0.4
		c-0.4,2.4-0.6,5-0.6,7.7c0,2.7,0,5.3,0,7.8c0.8,0.2,1.8,0.3,3.1,0.3c1.3,0,2.5-0.1,3.8-0.2c1.3-0.1,2.4-0.3,3.5-0.5
		c1-0.2,1.8-0.4,2.2-0.5c0.2-0.7,0.2-1.7,0.2-2.9c0-1.2,0-2.5-0.1-3.9c0-1.4-0.1-2.7-0.1-4.1c0-1.4,0-2.6,0.1-3.7
		c0.6-0.3,1.5-0.5,3-0.7c1.4-0.2,2.9-0.4,4.6-0.5c1.6-0.1,3.1-0.1,4.6-0.1S216.5,10.2,217.1,10.4z"/>
	<path d="M291.9,44.3c0,1,0,2.2-0.1,3.6c-0.1,1.4-0.2,2.7-0.4,4c-0.2,1.3-0.4,2.4-0.7,3.4c-0.3,1-0.7,1.7-1,2
		c-3.1,0-6.3-0.1-9.7-0.2c-3.4-0.1-6.8-0.4-10.2-0.7c-3.4-0.3-6.8-0.8-10.1-1.5c-3.3-0.7-6.5-1.6-9.4-2.7c-0.8-1.2-1.5-2.9-2-5.1
		c-0.5-2.3-0.8-4.8-0.9-7.6c-0.1-2.8-0.1-5.9,0.1-9s0.5-6.3,1-9.2c0.5-3,1.1-5.7,1.8-8.3c0.7-2.5,1.6-4.6,2.5-6.2
		c1.2-0.7,2.8-1.3,4.9-2c2.1-0.6,4.4-1.2,7-1.7c2.6-0.5,5.2-0.9,8-1.3c2.8-0.4,5.4-0.6,7.8-0.8c2.4-0.1,4.6-0.2,6.4-0.1
		s3.2,0.3,3.9,0.7c0.1,0.5,0.2,1.2,0.2,2.1c0.1,0.9,0.1,1.9,0.2,3c0,1.1,0,2.3,0,3.6c-0.1,1.3-0.2,2.5-0.4,3.9
		c-2.1,0.2-4,0.3-5.9,0.4c-1.8,0.1-3.6,0.2-5.2,0.4c-1.7,0.1-3.3,0.4-4.9,0.7c-1.6,0.3-3.2,0.9-4.8,1.6c-0.4,1.7-0.9,3.7-1.3,6
		c-0.4,2.3-0.7,4.6-0.9,6.9c-0.2,2.3-0.2,4.5-0.1,6.5c0.1,2,0.5,3.7,1.2,4.9c0.7,0.5,1.7,0.9,2.9,1.1c1.3,0.3,2.7,0.5,4.3,0.6
		c1.6,0.1,3.2,0.3,4.9,0.3c1.7,0.1,3.3,0.1,4.7,0.2c1.5,0,2.8,0.1,3.9,0.2C290.6,43.9,291.4,44.1,291.9,44.3z"/>
	<path d="M341.2,55.2c-1.4,0.4-3.1,0.8-5.2,1.1c-2.1,0.4-4.3,0.7-6.7,0.9c-2.4,0.3-4.9,0.5-7.5,0.7c-2.6,0.2-5.1,0.3-7.4,0.4
		c-2.4,0.1-4.6,0-6.6-0.1c-2-0.1-3.7-0.3-5-0.5c-0.5-0.7-1.1-1.5-1.8-2.4s-1.3-1.8-1.9-2.8c-0.6-1-1.2-1.9-1.7-2.8
		c-0.5-0.9-0.9-1.7-1.2-2.5c0.1-2.6,0.4-5.2,1.1-7.7c0.6-2.6,1.4-4.7,2.3-6.5c1-0.6,2.3-1.2,4.1-1.7c1.8-0.5,3.8-1.1,5.9-1.6
		c2.2-0.5,4.4-1,6.8-1.4c2.4-0.4,4.6-0.8,6.8-1.2c-0.1-0.5-0.2-1-0.4-1.6c-0.1-0.6-0.2-1.1-0.4-1.3c-0.9-0.6-2.2-1-3.8-1.3
		c-1.6-0.3-3.4-0.5-5.4-0.5c-1.9-0.1-3.9-0.1-5.9-0.1c-2,0-3.8,0-5.4,0c0-1,0-2,0.1-3.1c0.1-1.1,0.2-2.2,0.4-3.2
		c0.2-1,0.4-1.9,0.7-2.7c0.3-0.8,0.6-1.4,0.9-1.7c2.7-0.3,5.5-0.5,8.4-0.7c2.9-0.2,5.7-0.2,8.6-0.1c2.9,0.1,5.7,0.3,8.5,0.7
		c2.8,0.4,5.5,1,8.1,1.7c0.8,1,1.4,2.4,1.9,4.3c0.5,1.9,0.9,4.2,1.2,6.7c0.3,2.5,0.5,5.2,0.7,8.1c0.1,2.9,0.2,5.7,0.2,8.5
		c0,2.8,0,5.4-0.1,7.9C341.5,51.3,341.4,53.5,341.2,55.2z M324.4,47.2c0-1.8-0.1-3.5-0.1-5.2c0-1.6-0.1-3.3-0.1-5
		c-1.6,0.3-3.1,0.6-4.6,0.8c-1.5,0.2-2.9,0.6-4.4,1.4c-0.3,0.5-0.5,1.1-0.6,1.8c-0.1,0.7-0.2,1.4-0.1,2.2c0,0.7,0.1,1.5,0.3,2.2
		c0.1,0.7,0.3,1.4,0.5,1.9c0.9,0.4,2.1,0.6,3.7,0.4C320.4,47.6,322.3,47.4,324.4,47.2z"/>
	<path d="M366.7,1.6c0,1.9-0.1,4.4-0.1,7.7c0,3.2-0.1,6.7-0.1,10.5c0,3.8,0,7.6,0,11.6c0,4,0,7.7,0,11.1c0,3.4,0,6.4,0,8.9
		c0,2.5,0,4.1,0,4.9c-1.4,0.2-2.5,0.3-3.4,0.4c-0.9,0.1-1.9,0.2-3,0.2c-1.1,0-2.4,0-3.9-0.1c-1.5-0.1-3.7-0.2-6.3-0.3
		c0-1.6-0.1-3.7-0.2-6.5c-0.1-2.8-0.2-5.9-0.2-9.3c-0.1-3.4-0.2-7-0.3-10.7c-0.1-3.7-0.2-7.3-0.2-10.8c0-3.5-0.1-6.7,0-9.7
		c0-3,0.1-5.4,0.2-7.2c0.3-0.1,0.9-0.2,1.7-0.4c0.8-0.1,1.8-0.2,3-0.3c1.1-0.1,2.4-0.1,3.7-0.2c1.3,0,2.6,0,3.8-0.1
		c1.2,0,2.3,0,3.3,0C365.5,1.6,366.3,1.6,366.7,1.6z"/>
	<path d="M413,46.7c0,0.8,0,1.8-0.1,2.9c-0.1,1.1-0.2,2.2-0.4,3.2c-0.2,1-0.4,1.9-0.7,2.7c-0.3,0.8-0.6,1.3-0.9,1.6
		c-2.8,0-5.7-0.1-8.8-0.1c-3.1-0.1-6.1-0.3-9.2-0.5c-3.1-0.3-6.1-0.7-9.1-1.2c-3-0.6-5.8-1.3-8.4-2.2c-0.8-0.9-1.4-2.3-1.8-4.1
		c-0.4-1.8-0.7-3.8-0.8-6.1c-0.1-2.3-0.1-4.7,0.1-7.2c0.2-2.5,0.5-5,0.9-7.4c0.4-2.4,1-4.6,1.6-6.6c0.7-2,1.4-3.7,2.2-4.9
		c1-0.6,2.5-1.1,4.4-1.6c1.9-0.5,4-1,6.3-1.4c2.3-0.4,4.7-0.8,7.2-1c2.5-0.3,4.8-0.5,7-0.6c2.2-0.1,4.1-0.1,5.8-0.1
		c1.7,0.1,2.9,0.3,3.5,0.5c0.1,0.9,0.2,2.2,0.4,4.1c0.1,1.8,0,3.8-0.4,5.9c-1.8,0.1-3.6,0.2-5.2,0.3c-1.7,0.1-3.2,0.2-4.7,0.3
		c-1.5,0.1-3,0.3-4.4,0.6c-1.4,0.3-2.8,0.7-4.3,1.3c-0.4,1.4-0.8,3-1.2,4.8c-0.4,1.8-0.7,3.6-0.8,5.5c-0.2,1.8-0.2,3.6-0.1,5.2
		c0.1,1.6,0.5,3,1.1,4c0.6,0.4,1.5,0.7,2.7,0.9c1.1,0.2,2.4,0.4,3.8,0.5c1.4,0.1,2.9,0.2,4.4,0.3c1.5,0.1,2.9,0.1,4.3,0.1
		c1.3,0,2.5,0.1,3.5,0.2C411.9,46.4,412.6,46.5,413,46.7z"/>
</g>
</svg>
